<svg xmlns="http://www.w3.org/2000/svg" width="889.411" height="210.286" viewBox="0 0 889.411 210.286"><path fill="#FFF" d="M0 210.274v-.02.02zM457.754 0v204.583h204.582V0H457.754zm169.204 130.858c0 12.193-4.3 22.588-12.924 31.215-8.625 8.625-19.05 12.938-31.238 12.938h-90.893v-31.165h90.893c3.62 0 6.684-1.28 9.22-3.793 2.478-2.508 3.776-5.586 3.776-9.193 0-3.583-1.3-6.663-3.777-9.198-2.535-2.52-5.6-3.79-9.22-3.79h-90.892V86.71h90.893c3.62 0 6.684-1.263 9.22-3.79 2.478-2.53 3.776-5.594 3.776-9.196 0-3.602-1.3-6.666-3.777-9.196-2.535-2.53-5.6-3.786-9.22-3.786h-90.892V29.565h90.893c12.19 0 22.613 4.316 31.238 12.935 8.625 8.626 12.924 19.04 12.924 31.222 0 10.934-3.475 20.478-10.46 28.574 6.985 8.095 10.46 17.62 10.46 28.562zM684.866 0v204.583H889.41V0H684.867zm170.467 60.74h-90.9c-3.574 0-6.672 1.256-9.178 3.786-2.54 2.53-3.82 5.594-3.82 9.196 0 3.602 1.28 6.666 3.82 9.197 2.506 2.526 5.604 3.788 9.178 3.788h46.754c12.193 0 22.59 4.313 31.22 12.938 8.624 8.623 12.927 19.017 12.927 31.212 0 12.193-4.303 22.588-12.928 31.215-8.63 8.625-19.025 12.938-31.22 12.938H720.28v-31.165h90.907c3.607 0 6.676-1.28 9.223-3.793 2.49-2.508 3.768-5.586 3.768-9.193 0-3.583-1.277-6.663-3.768-9.198-2.547-2.52-5.615-3.79-9.223-3.79h-46.754c-12.197 0-22.596-4.312-31.213-12.93-8.62-8.624-12.94-19.035-12.94-31.22 0-12.18 4.32-22.594 12.94-31.22 8.617-8.62 19.016-12.936 31.213-12.936h90.9V60.74z"/><g fill="#FFF"><path d="M109.62 60.74c-11.498 0-21.317 4.043-29.41 12.146-8.133 8.103-12.17 17.912-12.17 29.41 0 11.495 4.037 21.28 12.17 29.384 8.093 8.123 17.913 12.164 29.41 12.164 4.97 0 9.665-.756 14.01-2.297l-19.233-28.965h36.37l5.92 8.83c3.004-5.752 4.46-12.12 4.46-19.117 0-11.497-4.044-21.306-12.13-29.41-8.122-8.102-17.905-12.145-29.396-12.145z"/><path d="M7.69 0v204.583h204.585V0H7.69zm174.658 175.01l-36.508-.092-4.554-6.88c-9.652 4.653-20.174 6.972-31.666 6.972-20.084 0-37.247-7.086-51.464-21.295-14.198-14.207-21.268-31.344-21.268-51.42 0-20.108 7.07-37.24 21.268-51.414 14.217-14.212 31.38-21.316 51.464-21.316 20.065 0 37.205 7.103 51.397 21.317 14.184 14.175 21.33 31.307 21.33 51.415 0 17.998-5.736 33.656-17.177 46.955l17.178 25.76z"/></g><path fill="#FFF" d="M232.705 0v204.583h204.6V0h-204.6zM406.79 107.48c0 18.642-7.144 34.552-21.335 47.733-14.167 13.205-31.328 19.797-51.398 19.797-20.075 0-37.234-6.592-51.456-19.797-14.196-13.182-21.27-29.092-21.27-47.734V29.564h31.16v77.914c0 10.028 4.05 18.618 12.162 25.722 8.104 7.1 17.907 10.643 29.406 10.643 11.494 0 21.282-3.543 29.416-10.643 8.056-7.104 12.124-15.693 12.124-25.723V29.564h31.193v77.914z"/></svg>